<?xml version="1.0" standalone="no"?>
<!DOCTYPE svg PUBLIC "-//W3C//DTD SVG 20010904//EN"
 "http://www.w3.org/TR/2001/REC-SVG-20010904/DTD/svg10.dtd">
<svg version="1.0" xmlns="http://www.w3.org/2000/svg"
 width="2997.000000pt" height="2997.000000pt" viewBox="0 0 2997.000000 2997.000000"
 preserveAspectRatio="xMidYMid meet">
<metadata>
Created by potrace 1.14, written by Peter Selinger 2001-2017
</metadata>
<g transform="translate(0.000000,2997.000000) scale(0.100000,-0.100000)"
fill="#000000" stroke="none">
<path d="M8059 29796 c-2 -3 -58 -8 -124 -11 -66 -4 -127 -8 -136 -10 -8 -2
-55 -6 -105 -10 -49 -3 -100 -8 -114 -10 -14 -2 -50 -7 -80 -10 -30 -4 -66 -8
-80 -10 -14 -2 -45 -6 -70 -10 -25 -3 -62 -8 -83 -11 -20 -3 -47 -7 -60 -9
-12 -1 -49 -7 -82 -13 -33 -6 -78 -14 -100 -17 -84 -14 -103 -17 -225 -42 -69
-14 -134 -27 -145 -29 -61 -12 -289 -67 -409 -99 -76 -20 -145 -38 -155 -40
-9 -2 -43 -13 -76 -23 -57 -19 -235 -74 -245 -77 -21 -4 -353 -121 -400 -140
-274 -112 -343 -140 -388 -161 -29 -13 -54 -24 -57 -24 -11 0 -452 -215 -540
-264 -22 -12 -74 -40 -115 -63 -159 -86 -581 -342 -600 -362 -3 -3 -52 -37
-110 -76 -58 -38 -107 -72 -110 -75 -3 -3 -45 -35 -95 -70 -94 -67 -108 -77
-270 -205 -378 -298 -769 -667 -1070 -1010 -38 -44 -72 -82 -75 -85 -32 -30
-258 -313 -372 -465 -361 -485 -712 -1098 -943 -1650 -37 -88 -71 -169 -75
-180 -44 -103 -159 -423 -204 -570 -21 -66 -46 -147 -56 -180 -10 -33 -28 -98
-40 -145 -11 -47 -27 -105 -35 -130 -8 -25 -16 -58 -19 -75 -3 -16 -10 -50
-16 -75 -7 -25 -13 -53 -15 -63 -2 -10 -6 -26 -9 -35 -3 -9 -8 -35 -11 -57 -4
-22 -10 -56 -15 -75 -5 -19 -12 -51 -15 -70 -3 -19 -8 -46 -10 -60 -11 -53
-13 -69 -20 -121 -4 -30 -8 -56 -10 -59 -2 -3 -6 -30 -10 -60 -6 -53 -12 -101
-20 -147 -2 -12 -7 -57 -10 -100 -4 -43 -9 -89 -11 -103 -27 -212 -27 -1370 1
-1541 2 -13 6 -60 10 -104 6 -80 10 -124 20 -200 3 -22 7 -67 10 -100 3 -33 8
-71 10 -85 2 -14 7 -44 10 -67 13 -108 17 -134 31 -223 8 -52 22 -135 30 -185
8 -49 20 -117 25 -150 15 -90 14 -85 59 -305 242 -1193 605 -2280 1153 -3455
49 -106 294 -598 338 -680 12 -22 28 -51 35 -66 53 -103 248 -457 364 -659 43
-74 86 -151 97 -170 93 -164 426 -703 621 -1005 337 -522 867 -1286 1127
-1626 27 -36 59 -78 70 -93 11 -16 38 -52 60 -81 22 -28 49 -64 60 -80 30 -41
444 -579 480 -624 8 -9 109 -135 226 -280 116 -145 220 -273 229 -285 10 -12
100 -120 200 -241 100 -121 203 -244 229 -274 25 -30 57 -68 71 -84 31 -38
142 -168 155 -183 5 -6 33 -37 60 -69 28 -32 55 -63 60 -69 6 -6 35 -40 65
-76 48 -57 92 -108 125 -144 6 -6 39 -45 75 -86 36 -41 101 -116 145 -165 44
-50 109 -123 144 -163 35 -39 72 -82 83 -94 11 -13 38 -43 61 -68 23 -25 76
-84 117 -130 41 -47 86 -97 100 -111 26 -27 149 -163 183 -202 10 -12 64 -71
120 -131 56 -60 109 -117 117 -126 15 -17 162 -177 229 -249 146 -156 449
-477 531 -561 30 -31 137 -142 237 -246 713 -741 2086 -2109 2733 -2724 36
-34 135 -128 220 -210 85 -81 175 -167 200 -190 25 -23 110 -104 190 -180 80
-75 183 -172 229 -216 46 -43 105 -99 131 -124 26 -25 112 -106 191 -180 127
-119 239 -225 360 -340 56 -54 289 -273 339 -320 25 -23 103 -97 175 -164 71
-66 154 -143 183 -171 30 -27 73 -68 96 -90 38 -36 231 -216 295 -274 14 -13
78 -72 141 -130 63 -58 137 -127 165 -152 81 -74 145 -132 185 -169 21 -19 55
-51 76 -70 49 -44 269 -245 350 -319 33 -31 102 -94 154 -141 51 -47 108 -98
125 -115 55 -52 373 -346 407 -376 18 -16 38 -28 45 -26 6 1 76 65 155 142 79
77 190 183 247 235 152 140 156 143 157 163 1 11 -41 56 -114 120 -64 56 -124
109 -132 117 -9 8 -43 38 -76 67 -95 82 -97 84 -180 160 -43 39 -88 80 -100
90 -19 16 -156 140 -224 203 -15 14 -74 68 -131 120 -86 79 -181 167 -270 250
-17 16 -234 219 -284 266 -17 16 -102 97 -189 179 -88 83 -176 166 -196 185
-21 19 -115 109 -210 200 -95 91 -190 181 -210 200 -20 19 -119 114 -220 210
-101 96 -202 192 -224 214 -199 188 -543 523 -851 827 -867 857 -809 802 -950
896 -290 193 -372 249 -425 287 -72 53 -277 213 -315 247 -360 314 -351 305
-670 624 -267 268 -339 343 -565 595 -52 58 -99 110 -105 116 -39 42 -141 161
-409 474 -11 14 -41 50 -66 80 -25 30 -47 57 -50 60 -33 33 -507 622 -760 945
-90 116 -167 212 -170 215 -3 3 -17 21 -30 40 -13 19 -27 37 -30 40 -3 3 -37
46 -75 95 -38 50 -152 198 -254 330 -102 132 -209 272 -238 310 -29 39 -57 75
-62 81 -5 6 -80 103 -166 215 -86 112 -166 218 -179 234 -81 103 -268 339
-309 390 -27 33 -54 67 -61 75 -6 8 -69 85 -140 170 -71 85 -145 175 -165 199
-20 24 -41 49 -46 55 -66 72 -612 745 -695 856 -14 18 -34 45 -46 59 -21 26
-258 341 -298 395 -11 17 -41 57 -66 90 -25 34 -52 71 -60 83 -8 11 -80 113
-160 225 -80 111 -159 222 -175 246 -17 24 -65 94 -108 155 -231 331 -547 817
-705 1082 -95 158 -96 161 -203 351 -64 114 -249 475 -312 609 -33 69 -22 63
18 -10 90 -165 316 -543 440 -735 244 -380 945 -1419 1124 -1665 86 -119 343
-467 356 -482 5 -6 46 -60 90 -119 67 -88 258 -337 529 -684 145 -187 358
-468 496 -655 449 -611 501 -680 799 -1040 33 -40 197 -231 227 -265 17 -19
89 -100 159 -180 71 -80 170 -190 221 -245 51 -55 105 -113 119 -130 36 -40
123 -134 204 -220 36 -39 113 -122 171 -184 58 -62 121 -130 140 -151 19 -21
78 -84 130 -141 52 -56 107 -116 123 -133 57 -61 189 -206 206 -225 18 -20
140 -154 256 -281 33 -36 98 -108 145 -160 97 -107 99 -109 206 -226 43 -47
90 -98 103 -113 13 -14 65 -71 115 -125 368 -399 565 -605 1106 -1156 99 -102
319 -326 488 -499 l307 -313 190 -126 c622 -412 1216 -875 1785 -1391 575
-522 1458 -1406 2094 -2095 50 -55 98 -107 106 -116 57 -61 240 -262 265 -290
51 -58 59 -62 81 -41 10 10 93 96 184 191 91 96 181 190 200 210 507 528 630
655 913 945 91 94 202 208 247 255 670 693 2870 2897 2904 2909 12 4 651 8
1421 10 770 1 1447 3 1505 4 l105 2 -1 1510 0 1510 -55 0 c-56 0 -68 9 -47 35
48 59 117 140 144 170 17 19 77 87 134 150 56 63 119 133 139 155 20 22 88 99
150 170 63 72 128 146 145 165 17 19 60 69 95 110 35 41 67 77 70 80 3 3 29
32 56 65 28 33 60 71 71 85 12 14 62 72 111 130 48 58 98 116 110 130 12 14
60 72 108 130 48 58 97 116 108 130 12 14 58 70 102 125 81 101 97 120 135
165 12 14 34 40 48 59 30 38 125 155 150 186 10 11 41 51 71 89 29 38 62 78
72 90 10 11 90 113 179 226 88 113 166 212 173 220 7 8 50 65 97 125 47 61 90
117 97 125 32 39 331 429 353 460 13 19 27 37 30 40 12 10 402 541 460 625 19
28 38 55 42 60 33 39 389 564 435 640 6 11 52 85 102 165 86 139 199 330 246
415 13 22 49 85 80 140 32 55 111 204 175 330 130 255 121 238 306 562 133
232 168 296 286 518 90 171 368 737 368 750 0 2 15 36 34 77 262 569 560 1355
752 1983 29 96 123 429 139 495 2 8 13 51 25 95 11 44 36 150 56 235 43 188
43 186 50 230 3 19 8 38 9 41 2 3 7 28 11 55 3 27 8 52 10 55 1 3 6 28 9 55 4
27 10 65 15 84 5 19 14 71 21 115 6 44 13 89 15 100 1 11 10 70 18 130 9 61
18 124 21 140 2 17 7 55 10 85 3 30 8 66 10 80 5 32 13 108 21 190 3 36 7 79
9 95 1 17 5 73 9 125 4 52 9 111 11 130 20 167 27 791 11 1020 -12 174 -13
187 -21 260 -4 36 -8 79 -10 95 -5 56 -16 150 -20 175 -3 14 -7 43 -11 65 -3
22 -12 76 -19 120 -8 44 -16 91 -19 105 -2 14 -14 69 -26 124 -12 54 -23 106
-25 116 -7 34 -77 295 -97 360 -33 107 -129 393 -142 425 -7 17 -23 57 -36 90
-103 270 -264 603 -428 885 -57 99 -75 127 -188 300 -138 211 -289 411 -488
645 -122 143 -472 500 -605 615 -41 36 -79 70 -85 75 -232 212 -778 603 -1059
758 -26 15 -58 33 -70 41 -82 51 -573 296 -593 296 -2 0 -27 11 -56 24 -86 39
-296 120 -497 191 -65 23 -311 100 -351 110 -8 3 -67 18 -130 35 -136 37 -120
33 -244 60 -54 12 -107 24 -117 26 -53 12 -68 15 -119 24 -30 6 -66 12 -80 15
-14 3 -38 7 -55 10 -16 3 -43 7 -60 10 -16 3 -64 10 -105 16 -41 6 -78 13 -82
15 -5 3 -8 1 -8 -5 0 -8 21 -13 115 -27 17 -2 42 -7 57 -10 15 -3 42 -7 60 -9
18 -3 56 -9 83 -15 28 -6 60 -12 71 -14 123 -24 325 -71 418 -98 38 -11 76
-21 85 -23 38 -8 206 -59 326 -100 245 -81 482 -175 695 -272 94 -43 402 -199
468 -237 35 -20 66 -36 68 -36 3 0 28 -15 57 -33 29 -18 59 -36 67 -40 27 -12
287 -180 382 -247 93 -65 379 -278 388 -289 3 -3 58 -50 122 -103 173 -144
204 -174 423 -393 216 -216 246 -248 351 -371 106 -124 127 -149 154 -185 14
-18 37 -47 51 -63 25 -30 122 -160 165 -221 86 -124 179 -264 225 -340 30 -49
56 -92 59 -95 3 -3 11 -16 19 -29 32 -58 67 -121 103 -186 58 -104 248 -495
248 -510 0 -2 11 -28 24 -57 95 -210 263 -743 316 -1003 4 -22 15 -74 23 -115
8 -41 19 -93 23 -115 4 -22 8 -45 10 -52 1 -6 4 -29 7 -50 3 -21 10 -67 16
-103 5 -36 13 -85 16 -110 3 -25 8 -61 10 -80 5 -34 8 -61 21 -200 11 -119 12
-134 20 -305 13 -322 6 -693 -20 -990 -3 -38 -9 -101 -12 -140 -3 -38 -7 -81
-9 -95 -2 -14 -7 -50 -10 -80 -3 -30 -10 -91 -16 -135 -6 -44 -12 -91 -14
-105 -3 -28 -14 -100 -21 -145 -3 -16 -7 -41 -9 -55 -7 -45 -16 -104 -31 -190
-9 -47 -17 -98 -19 -114 -3 -15 -7 -35 -9 -45 -3 -9 -8 -32 -11 -51 -13 -79
-17 -97 -26 -140 -14 -61 -16 -72 -24 -116 -3 -22 -10 -55 -15 -74 -13 -48
-58 -239 -63 -270 -5 -24 -41 -165 -93 -360 -80 -296 -257 -849 -359 -1120
-26 -69 -58 -152 -70 -185 -86 -229 -260 -643 -374 -890 -21 -44 -53 -114 -71
-155 -47 -102 -348 -705 -405 -808 -25 -46 -61 -114 -81 -150 -19 -37 -39 -74
-44 -82 -5 -8 -59 -105 -121 -215 -61 -110 -120 -213 -130 -230 -10 -16 -24
-42 -32 -56 -8 -15 -74 -126 -148 -248 -74 -122 -139 -229 -144 -239 -6 -9
-23 -39 -40 -67 -16 -27 -32 -52 -35 -55 -3 -3 -32 -48 -64 -100 -90 -146
-520 -799 -549 -835 -4 -5 -56 -80 -115 -165 -189 -272 -353 -503 -465 -655
-147 -200 -559 -749 -638 -851 -52 -66 -105 -136 -119 -154 -14 -18 -54 -70
-90 -115 -36 -45 -78 -100 -95 -121 -70 -89 -363 -454 -413 -514 -73 -88 -81
-98 -127 -155 -22 -27 -50 -61 -61 -75 -12 -14 -61 -72 -109 -130 -79 -95
-130 -155 -182 -217 -10 -11 -32 -38 -50 -60 -40 -48 -77 -91 -106 -123 -12
-14 -42 -50 -67 -79 -25 -29 -54 -63 -65 -75 -11 -12 -38 -44 -60 -70 -48 -59
-54 -65 -131 -152 -34 -38 -130 -148 -215 -244 -84 -96 -158 -180 -164 -186
-10 -10 -107 -119 -209 -234 -28 -30 -66 -73 -87 -95 -20 -22 -47 -52 -60 -66
-60 -67 -198 -218 -235 -258 l-41 -44 -94 -2 c-52 -1 -100 1 -107 3 -7 3 18
38 65 91 43 47 92 102 109 121 17 19 56 62 85 95 30 33 81 91 114 129 33 38
65 74 70 80 6 6 58 65 115 131 57 66 109 125 114 131 6 6 31 35 55 64 25 29
50 58 55 64 6 6 36 40 66 76 65 76 101 119 115 134 6 6 62 72 125 146 63 74
117 137 120 140 4 4 84 99 175 209 11 14 27 32 35 40 8 9 46 55 84 101 38 47
74 90 80 95 6 6 38 44 71 85 33 41 94 116 136 165 41 50 113 137 159 195 46
58 92 114 102 125 9 11 50 61 90 110 40 50 76 95 81 100 54 66 330 419 427
545 69 89 132 171 140 181 17 21 306 408 432 579 76 103 290 402 328 457 17
25 161 230 238 339 133 189 391 581 559 849 62 99 116 185 120 190 9 11 146
236 179 293 12 21 79 134 149 252 458 772 844 1528 1115 2180 28 69 57 139 65
155 100 231 375 987 425 1170 4 17 25 84 45 150 20 66 38 127 40 135 2 8 10
35 18 60 37 116 159 586 184 710 5 27 6 31 16 70 4 14 9 36 11 50 3 14 7 34
10 45 12 55 85 436 90 473 3 24 12 82 20 130 13 75 35 233 51 365 3 20 7 54
10 75 5 40 10 93 20 212 4 41 8 93 10 115 32 367 22 1054 -20 1370 -3 17 -9
66 -15 111 -6 44 -12 89 -14 100 -2 10 -9 53 -15 94 -7 41 -21 116 -31 165
-10 50 -21 104 -24 120 -41 231 -229 832 -312 999 -7 16 -14 33 -14 38 0 21
-188 411 -272 563 -220 398 -513 815 -779 1110 -19 22 -64 72 -99 110 -94 105
-351 357 -481 471 -491 433 -1087 814 -1664 1063 -66 29 -138 61 -160 71 -207
96 -764 271 -1065 335 -41 9 -84 18 -95 21 -11 2 -31 6 -45 9 -14 2 -50 9 -80
15 -89 17 -271 48 -325 55 -27 3 -61 8 -75 10 -40 6 -210 25 -275 30 -33 3
-80 7 -105 10 -268 26 -904 26 -1160 0 -19 -2 -71 -6 -115 -10 -44 -3 -87 -7
-95 -10 -8 -2 -44 -6 -80 -10 -97 -10 -207 -24 -245 -31 -11 -3 -36 -7 -55
-10 -19 -3 -71 -12 -115 -20 -44 -8 -96 -17 -115 -20 -19 -3 -62 -12 -95 -19
-33 -8 -71 -16 -85 -19 -91 -16 -387 -95 -570 -153 -182 -57 -307 -102 -455
-163 -22 -9 -71 -30 -110 -46 -94 -39 -338 -159 -455 -224 -52 -29 -104 -58
-115 -64 -40 -22 -219 -140 -332 -218 -72 -50 -281 -211 -344 -265 -158 -137
-246 -219 -414 -388 -186 -186 -236 -240 -343 -374 -77 -96 -242 -341 -230
-341 3 0 20 21 38 48 34 47 140 182 151 192 3 3 12 15 20 26 15 22 100 120
199 228 81 89 265 271 355 351 43 39 83 75 89 80 26 25 228 187 301 242 82 62
280 196 395 269 170 107 552 308 665 349 28 10 55 22 61 26 9 8 192 80 289
115 137 50 463 148 580 174 28 7 57 13 65 16 16 4 243 53 275 59 26 5 133 24
165 29 21 4 81 13 210 31 36 5 190 22 265 29 22 3 83 7 135 11 52 3 115 8 140
10 264 22 946 22 1125 1 17 -2 70 -7 119 -11 49 -4 96 -8 105 -10 9 -1 43 -6
76 -9 73 -9 289 -42 365 -56 30 -6 69 -13 85 -16 17 -2 71 -13 120 -24 50 -11
101 -23 115 -26 14 -3 43 -10 65 -16 22 -5 49 -12 60 -14 142 -26 731 -225
930 -314 249 -112 510 -240 625 -307 14 -8 46 -27 72 -41 125 -72 176 -103
336 -208 235 -155 544 -387 688 -519 7 -5 43 -37 80 -70 192 -167 523 -516
711 -750 138 -172 350 -473 427 -606 11 -19 40 -68 64 -109 113 -192 244 -452
332 -660 119 -281 284 -790 326 -1005 4 -22 12 -56 18 -82 9 -34 46 -228 51
-268 4 -22 8 -47 10 -55 2 -8 7 -42 10 -75 4 -33 8 -67 10 -75 4 -15 11 -64
19 -150 5 -46 16 -205 22 -320 4 -95 4 -462 -1 -555 -12 -221 -17 -303 -20
-335 -2 -19 -7 -69 -10 -110 -6 -77 -12 -138 -20 -200 -8 -66 -14 -115 -20
-162 -5 -44 -7 -62 -20 -153 -13 -92 -19 -127 -50 -325 -6 -34 -64 -350 -69
-375 -2 -11 -7 -31 -10 -45 -3 -14 -8 -36 -10 -50 -16 -96 -143 -609 -202
-815 -25 -88 -47 -164 -48 -170 -50 -195 -337 -1012 -422 -1202 -8 -17 -14
-34 -14 -38 0 -4 -6 -21 -14 -38 -8 -18 -56 -128 -106 -245 -50 -117 -104
-243 -121 -280 -139 -304 -193 -418 -339 -707 -92 -181 -181 -357 -199 -390
-18 -33 -51 -94 -73 -135 -58 -107 -219 -395 -301 -535 -38 -66 -77 -133 -87
-150 -40 -70 -258 -427 -307 -503 -29 -45 -53 -84 -53 -87 0 -2 -17 -30 -38
-62 -21 -32 -63 -96 -93 -143 -360 -561 -760 -1134 -1273 -1820 -56 -74 -103
-137 -106 -140 -3 -3 -32 -40 -64 -84 -32 -43 -64 -86 -72 -95 -7 -9 -55 -70
-106 -136 -51 -66 -98 -127 -105 -135 -6 -8 -90 -114 -186 -236 -184 -233
-505 -635 -535 -669 -10 -11 -65 -78 -122 -150 -58 -71 -115 -141 -126 -155
-26 -30 -313 -377 -334 -404 -8 -10 -24 -28 -35 -40 -11 -11 -36 -41 -55 -66
-19 -24 -49 -60 -66 -80 -18 -19 -130 -150 -250 -290 -120 -140 -227 -264
-239 -276 -11 -12 -35 -39 -54 -60 -33 -39 -148 -168 -186 -210 -25 -27 -165
-181 -185 -204 -28 -30 -224 -245 -262 -285 l-37 -39 -89 -1 c-102 -1 -101 -4
-25 78 36 38 103 114 298 332 39 43 78 87 88 99 10 12 31 35 45 51 57 64 160
182 188 214 16 19 36 42 44 51 8 8 40 45 70 80 30 36 67 78 81 95 62 70 240
279 300 350 19 22 36 42 39 45 12 11 556 661 648 775 22 27 94 117 107 133 5
7 17 21 25 30 9 9 33 40 55 67 22 28 44 55 50 61 5 6 23 28 39 48 16 20 90
114 165 209 76 94 197 249 270 342 72 94 137 177 144 185 26 33 163 212 187
244 14 19 75 100 135 181 475 632 933 1294 1347 1945 140 221 339 543 389 630
4 8 33 56 62 105 58 95 279 484 341 598 20 37 45 82 55 100 201 359 524 1008
703 1412 43 99 85 194 93 210 101 223 334 834 410 1075 69 217 131 422 171
570 44 158 131 508 140 560 2 14 13 63 24 110 10 47 22 99 25 115 57 309 106
604 120 730 3 22 7 56 10 75 10 72 15 116 20 170 3 30 7 75 10 100 9 83 14
144 20 225 4 44 8 96 10 115 26 224 20 915 -9 1139 -3 20 -8 61 -11 91 -4 30
-8 66 -10 80 -2 14 -7 45 -10 70 -3 25 -10 70 -16 100 -5 30 -12 73 -15 95 -3
22 -9 54 -14 70 -8 27 -22 107 -21 120 0 2 -5 19 -10 37 -6 18 -12 40 -14 48
-101 433 -252 844 -470 1275 -107 211 -269 496 -287 503 -4 2 -8 7 -8 12 0 26
-342 496 -435 596 -5 6 -35 40 -65 75 -363 421 -834 824 -1325 1131 -318 200
-781 433 -1065 537 -19 7 -44 17 -55 22 -166 72 -669 229 -875 273 -214 46
-346 70 -435 81 -27 4 -61 8 -75 11 -42 7 -255 16 -250 11 3 -3 21 -7 40 -10
19 -3 55 -10 80 -15 25 -6 59 -14 75 -17 66 -13 79 -16 85 -20 4 -2 22 -7 41
-10 19 -3 52 -11 74 -16 49 -14 45 -13 185 -39 328 -62 423 -81 547 -115 459
-125 973 -355 1448 -649 72 -44 132 -84 133 -88 2 -5 8 -8 13 -8 13 0 333
-223 359 -250 3 -3 32 -25 65 -50 33 -25 71 -55 85 -67 14 -12 59 -49 100 -83
174 -143 458 -418 626 -605 458 -510 823 -1093 1063 -1698 125 -314 210 -615
285 -1012 8 -38 34 -207 40 -260 3 -22 7 -56 10 -75 2 -19 7 -71 11 -115 4
-44 9 -88 11 -97 11 -59 19 -305 18 -568 0 -372 -8 -531 -45 -865 -6 -55 -13
-115 -15 -134 -2 -19 -5 -48 -8 -65 -3 -17 -8 -53 -11 -81 -4 -27 -12 -88 -20
-135 -8 -47 -16 -98 -18 -115 -49 -320 -159 -819 -274 -1235 -101 -368 -332
-1061 -419 -1255 -7 -16 -32 -77 -54 -135 -39 -98 -109 -269 -130 -315 -5 -11
-18 -40 -29 -65 -156 -360 -216 -487 -402 -865 -119 -242 -200 -398 -294 -570
-108 -197 -402 -703 -480 -825 -12 -19 -60 -96 -105 -170 -195 -315 -422 -662
-647 -985 -189 -272 -266 -380 -280 -395 -15 -14 6 17 160 240 293 423 493
730 577 885 90 167 105 193 173 315 39 69 89 166 113 217 37 79 96 189 208
383 14 25 42 74 61 110 20 36 46 83 58 105 13 22 44 80 70 128 26 49 54 98 61
110 50 81 328 637 416 832 12 28 45 100 73 160 105 231 260 596 344 810 19 50
41 104 48 120 45 104 174 462 235 650 23 72 44 137 47 145 4 8 7 20 8 25 2 6
17 57 35 115 49 163 148 533 166 623 2 10 6 27 9 37 3 10 8 27 10 37 2 10 13
59 24 108 11 50 22 101 25 115 2 14 9 45 14 70 6 25 13 61 16 80 3 19 8 46 11
60 10 51 45 246 50 285 3 22 8 51 10 65 6 34 12 71 24 160 10 72 14 106 26
215 3 28 8 61 10 75 2 14 7 63 10 110 4 47 8 101 10 120 27 272 27 1148 1
1285 -2 11 -7 55 -11 97 -3 43 -8 88 -10 100 -2 13 -13 77 -25 143 -27 164
-30 177 -36 197 -3 10 -7 30 -10 45 -8 46 -34 151 -71 283 -181 650 -455 1222
-842 1755 -61 84 -242 316 -265 341 -6 6 -29 32 -50 58 -101 122 -351 376
-472 481 -38 33 -76 67 -84 75 -15 15 -117 100 -155 129 -39 30 6 -13 100 -95
322 -281 604 -585 831 -899 51 -71 97 -134 102 -140 8 -10 98 -148 147 -225
115 -181 282 -502 372 -715 150 -353 224 -582 323 -1010 16 -68 56 -297 66
-380 3 -27 7 -61 9 -75 2 -14 7 -52 10 -85 3 -33 7 -75 10 -94 25 -199 25
-850 0 -1136 -2 -27 -7 -81 -9 -120 -3 -38 -8 -88 -11 -110 -5 -46 -23 -209
-30 -274 -2 -24 -6 -51 -9 -60 -3 -9 -7 -41 -11 -73 -10 -97 -82 -506 -120
-683 -118 -555 -303 -1187 -504 -1724 -53 -141 -112 -295 -121 -316 -5 -11
-30 -72 -56 -135 -43 -108 -88 -215 -119 -285 -7 -16 -40 -91 -73 -165 -162
-364 -373 -795 -557 -1135 -20 -38 -58 -108 -82 -154 -25 -46 -59 -107 -75
-135 -17 -28 -34 -60 -39 -71 -5 -11 -13 -27 -19 -35 -5 -8 -41 -71 -80 -140
-39 -69 -74 -132 -80 -140 -5 -8 -30 -51 -55 -95 -65 -111 -372 -614 -417
-683 -21 -31 -41 -64 -45 -72 -4 -8 -23 -39 -43 -70 -20 -30 -56 -86 -81 -125
-83 -131 -547 -824 -560 -835 -3 -3 -20 -27 -39 -55 -18 -27 -117 -166 -219
-308 -102 -143 -193 -269 -201 -280 -59 -88 -618 -826 -735 -972 -14 -16 -56
-70 -95 -120 -39 -49 -79 -99 -88 -110 -9 -11 -62 -77 -116 -145 -110 -138
-307 -380 -366 -450 -21 -25 -123 -146 -226 -270 -151 -182 -350 -414 -571
-670 -12 -14 -31 -36 -43 -50 -12 -14 -47 -54 -79 -90 -32 -36 -131 -148 -221
-250 -89 -102 -192 -218 -229 -259 -36 -41 -74 -83 -84 -95 -10 -12 -37 -41
-60 -66 -23 -25 -74 -81 -112 -124 -39 -44 -81 -92 -95 -106 -14 -14 -44 -48
-68 -75 -24 -27 -83 -92 -131 -144 -49 -53 -107 -116 -129 -141 l-40 -45
-2926 -1 -2926 0 0 53 c0 29 3 53 8 54 33 3 307 65 467 105 77 20 147 37 155
39 74 17 475 140 502 155 10 6 22 10 28 10 13 0 339 126 414 160 34 15 81 36
106 46 94 39 430 214 553 287 166 100 335 213 472 317 98 74 142 111 266 217
43 36 333 325 380 378 133 151 304 385 419 575 99 163 290 544 290 578 0 5 7
22 14 38 17 34 81 208 101 274 59 198 112 405 131 510 41 224 42 232 69 450
14 112 20 276 20 510 0 313 -8 435 -46 665 -72 445 -213 849 -420 1202 -54 90
-187 294 -198 303 -4 3 -20 23 -37 45 -60 81 -207 247 -300 340 -371 367 -804
674 -1489 1056 -315 175 -961 491 -1380 674 -154 67 -505 215 -511 215 -2 0
-4 -651 -4 -1447 l0 -1448 68 -40 c86 -51 335 -228 372 -265 4 -4 85 -73 165
-140 83 -71 277 -276 342 -363 83 -112 171 -257 209 -344 13 -32 29 -67 34
-78 5 -11 20 -54 33 -95 78 -241 91 -493 41 -814 -53 -345 -164 -618 -357
-886 -82 -114 -102 -136 -237 -270 -169 -168 -336 -289 -565 -411 l-115 -61 0
5671 0 5670 48 -16 c67 -23 352 -170 452 -233 273 -173 530 -398 754 -660 119
-139 121 -142 169 -207 21 -29 41 -53 45 -53 5 0 219 91 392 167 30 13 64 28
75 33 11 4 36 15 55 23 19 8 172 74 340 147 168 72 329 142 358 156 29 13 56
24 60 24 4 0 21 7 37 16 17 9 55 26 85 39 30 12 177 75 325 140 149 64 349
151 445 192 96 41 178 78 183 82 10 10 -126 282 -211 420 -509 833 -1298 1416
-2402 1778 -212 69 -528 156 -684 189 -21 4 -206 43 -241 50 -18 4 -92 16
-180 31 -16 2 -46 8 -65 12 l-35 7 -3 871 -2 871 -648 -4 c-356 -2 -1011 -6
-1457 -8 -445 -3 -892 -5 -993 -6 l-182 0 0 -407 c0 -225 0 -629 0 -898 l0
-490 -87 -20 c-49 -10 -90 -19 -93 -18 -3 0 -16 -4 -30 -9 -14 -5 -34 -12 -46
-14 -11 -2 -84 -22 -163 -44 -579 -164 -1143 -419 -1611 -728 -80 -53 -149
-99 -155 -104 -5 -4 -55 -42 -110 -84 -245 -188 -497 -428 -665 -634 -25 -30
-49 -60 -55 -66 -40 -43 -186 -257 -261 -380 -70 -116 -244 -460 -244 -482 0
-4 -9 -26 -19 -48 -57 -117 -197 -600 -216 -744 -3 -25 -8 -52 -10 -60 -15
-54 -41 -265 -51 -425 -13 -186 -7 -547 11 -665 2 -14 6 -47 10 -75 6 -48 29
-193 40 -245 3 -14 7 -37 10 -51 11 -59 58 -231 91 -334 174 -532 457 -988
874 -1405 156 -157 230 -223 390 -349 63 -50 120 -95 125 -99 42 -34 266 -187
385 -262 150 -96 463 -278 635 -371 55 -29 141 -75 190 -101 99 -53 745 -375
865 -430 41 -20 96 -45 121 -57 25 -11 48 -21 52 -21 4 0 7 694 7 1541 l0
1542 -102 106 c-317 329 -498 679 -544 1056 -11 88 -5 285 11 375 10 54 19
106 20 110 32 124 84 274 121 350 19 39 34 72 34 74 0 20 151 250 200 306 82
93 248 250 266 250 3 0 4 -2488 2 -5530 l-2 -5529 -26 6 c-90 21 -426 170
-570 253 -41 23 -84 48 -95 54 -43 24 -213 141 -275 190 -437 343 -767 810
-946 1336 -10 30 -19 56 -20 58 -2 3 -528 -201 -591 -229 -24 -10 -45 -19 -48
-19 -4 0 -791 -305 -850 -330 -11 -4 -45 -18 -75 -30 -30 -11 -64 -25 -75 -30
-11 -5 -184 -72 -385 -150 -201 -78 -368 -145 -372 -149 -8 -7 54 -242 72
-273 6 -10 10 -23 10 -30 0 -12 70 -208 90 -253 5 -11 30 -67 56 -125 103
-232 197 -405 336 -614 112 -167 268 -371 368 -477 149 -159 294 -300 400
-389 36 -30 67 -58 70 -61 13 -15 265 -203 350 -260 246 -168 527 -323 800
-443 47 -21 99 -44 117 -52 274 -123 861 -301 1248 -378 44 -9 91 -19 105 -22
47 -10 244 -45 300 -53 3 -1 5 -697 5 -1548 l0 -1548 1715 2 c1805 2 4403 4
4482 3 l46 0 -391 -389 c-216 -214 -439 -435 -497 -491 -58 -56 -258 -252
-445 -434 -187 -183 -423 -413 -524 -512 -239 -233 -348 -340 -761 -744 -816
-799 -743 -731 -762 -713 -17 15 -19 14 -37 -6 l-19 -22 -99 94 c-54 51 -129
122 -167 158 -37 35 -100 95 -140 132 -39 37 -122 116 -185 175 -62 59 -135
127 -160 152 -26 25 -107 101 -181 170 -73 69 -150 141 -170 160 -32 31 -205
193 -326 306 -45 43 -243 226 -291 271 -135 125 -251 233 -278 258 -17 17 -78
73 -136 125 -57 52 -124 114 -149 137 -25 23 -56 51 -70 63 -14 12 -48 42 -75
68 -52 49 -225 206 -255 232 -29 25 -193 174 -209 190 -9 8 -117 105 -241 215
-124 110 -227 202 -230 205 -3 3 -57 51 -120 105 -63 55 -117 102 -120 105 -8
9 -178 150 -255 212 -73 58 -192 138 -207 138 -19 0 -5 -33 38 -87 40 -51 36
-48 -33 23 -43 45 -136 144 -208 220 -230 246 -259 277 -290 309 -16 18 -79
85 -140 150 -60 65 -128 137 -150 160 -22 23 -96 102 -165 176 -69 73 -134
143 -145 155 -11 11 -76 81 -145 154 -69 73 -142 152 -163 174 -22 23 -87 92
-145 155 -59 63 -125 133 -147 156 -22 24 -87 93 -145 155 -58 61 -121 129
-140 149 -19 21 -91 98 -160 171 -117 126 -229 246 -275 295 -23 25 -215 232
-295 319 -30 33 -64 70 -75 81 -11 12 -60 66 -110 120 -49 54 -101 110 -114
124 -12 14 -54 60 -91 101 -37 41 -79 87 -91 101 -13 14 -60 65 -104 114 -44
49 -87 95 -95 104 -9 9 -49 54 -90 101 -41 47 -79 90 -85 96 -5 6 -37 41 -70
79 -33 37 -65 73 -71 79 -5 6 -43 49 -84 96 -41 47 -79 90 -85 96 -5 6 -32 37
-60 69 -27 32 -55 63 -60 69 -38 40 -401 468 -549 646 -98 118 -188 226 -200
240 -30 35 -279 345 -430 535 -70 88 -135 169 -144 180 -10 11 -43 54 -75 95
-31 41 -95 125 -142 185 -100 128 -583 771 -673 895 -34 47 -65 90 -69 95 -5
6 -69 96 -143 200 -73 105 -156 222 -184 260 -57 79 -467 694 -537 806 -135
214 -472 766 -515 844 -80 145 -119 225 -92 191 105 -133 186 -239 258 -339
94 -132 106 -148 203 -304 148 -236 465 -727 489 -758 5 -5 24 -35 45 -65 92
-139 200 -295 367 -528 100 -140 190 -267 201 -282 50 -72 539 -728 589 -791
12 -15 30 -39 41 -54 11 -16 25 -33 30 -39 6 -6 30 -38 55 -70 41 -54 203
-260 233 -296 7 -8 50 -62 96 -120 47 -58 98 -121 115 -141 17 -19 42 -49 56
-65 77 -91 329 -384 356 -414 18 -19 41 -44 51 -56 55 -64 155 -177 208 -234
63 -69 209 -231 235 -260 14 -16 151 -167 214 -234 15 -17 47 -51 69 -76 135
-147 472 -508 582 -625 34 -35 264 -279 345 -365 63 -67 425 -443 515 -535 55
-56 251 -257 435 -446 579 -593 1489 -1498 1596 -1589 78 -65 185 -150 190
-150 7 0 11 -5 -88 120 -41 52 -93 115 -115 140 -22 25 -89 101 -149 170 -60
68 -116 132 -124 140 -8 9 -40 43 -70 76 -156 170 -240 261 -285 308 -27 29
-111 117 -185 196 -74 79 -155 165 -180 191 -25 25 -97 102 -161 170 -64 68
-148 156 -185 196 -38 40 -121 127 -184 194 -63 67 -135 143 -160 169 -25 26
-95 101 -156 166 -61 66 -131 139 -154 164 -23 25 -93 99 -155 165 -62 66
-125 134 -141 151 -56 60 -221 239 -248 269 -15 17 -46 50 -69 75 -23 25 -85
92 -137 150 -52 57 -104 114 -115 126 -37 40 -90 99 -170 189 -44 50 -82 92
-85 95 -8 7 -303 341 -380 430 -36 41 -67 77 -71 80 -3 3 -86 100 -184 215
-99 116 -206 242 -240 281 -33 39 -78 92 -100 119 -22 27 -56 68 -75 90 -97
114 -345 414 -470 570 -58 71 -111 136 -118 143 -7 8 -25 30 -40 50 -15 20
-37 48 -48 62 -12 14 -54 66 -93 115 -39 50 -77 97 -84 105 -6 8 -59 76 -117
150 -57 74 -107 137 -110 140 -11 11 -414 545 -452 600 -10 14 -35 48 -55 77
-38 51 -190 262 -228 316 -103 144 -359 523 -492 724 -236 359 -510 788 -520
813 -3 8 -12 22 -18 30 -16 19 -169 281 -225 385 -23 44 -46 85 -50 90 -4 6
-29 51 -55 100 -26 50 -91 169 -143 265 -95 176 -112 207 -192 355 -44 81
-254 496 -256 505 0 3 -20 46 -43 95 -23 50 -74 164 -112 255 -39 91 -74 174
-79 185 -5 11 -32 81 -60 155 -29 74 -71 185 -95 245 -24 61 -50 130 -58 155
-9 25 -26 70 -38 100 -12 30 -85 244 -162 475 -76 231 -142 427 -145 435 -3 8
-6 20 -7 25 -2 6 -35 109 -73 230 -116 363 -139 442 -186 630 -24 99 -47 194
-50 210 -7 32 -11 52 -27 130 -13 62 -16 80 -29 155 -6 33 -12 72 -15 87 -7
40 -33 200 -40 253 -11 69 -12 81 -19 145 -4 33 -11 85 -16 115 -5 30 -12 87
-15 125 -4 39 -8 84 -10 100 -5 43 -21 213 -30 315 -20 238 -26 681 -12 925 8
133 10 158 23 280 4 39 8 81 9 95 5 63 16 166 20 180 3 8 7 33 9 55 5 41 14
103 21 143 14 85 28 160 45 247 26 131 27 133 39 185 5 25 12 56 14 70 3 14
13 57 22 95 9 39 18 78 20 88 2 10 7 27 10 37 3 10 8 27 10 37 8 39 78 262
110 348 100 273 141 397 211 630 50 167 56 201 58 283 1 80 -2 96 -17 107 -23
16 -40 11 -90 -28 -21 -16 -40 -27 -43 -24 -16 16 354 651 388 665 5 2 8 8 8
14 0 5 31 55 68 111 38 56 106 158 152 227 195 293 320 440 576 676 203 188
236 218 318 287 27 23 54 47 60 52 6 6 58 48 116 94 58 45 113 89 122 96 100
80 407 289 566 386 395 239 885 483 1257 626 114 44 433 153 545 186 101 31
259 76 286 82 10 2 91 22 179 45 88 22 171 42 185 45 28 5 37 7 140 30 41 10
84 19 95 20 11 2 29 6 40 8 11 3 40 8 65 12 25 4 52 9 61 10 32 6 85 14 134
20 28 3 75 10 105 15 30 5 80 11 111 15 31 3 65 7 75 9 11 2 51 7 89 10 39 4
80 8 90 10 19 4 65 9 180 21 28 3 79 7 115 10 122 9 215 16 255 20 22 2 85 6
140 10 55 4 111 8 125 10 14 2 59 6 100 10 41 3 95 8 120 10 25 3 68 7 95 9
28 3 84 8 125 11 41 4 82 8 90 10 8 2 58 6 110 10 52 4 106 9 120 10 14 2 77
6 140 10 63 4 123 9 132 10 29 6 377 18 513 18 123 0 388 -11 424 -18 9 -1 45
-6 81 -10 36 -3 76 -8 90 -10 14 -3 48 -7 75 -10 28 -4 68 -10 90 -15 22 -5
54 -11 70 -14 17 -3 45 -8 64 -11 90 -15 365 -92 524 -146 369 -125 734 -296
1072 -503 28 -17 59 -36 70 -43 86 -51 303 -193 1045 -685 284 -189 568 -389
665 -470 11 -9 67 -55 125 -103 58 -47 152 -130 210 -183 84 -78 97 -87 65
-47 -46 59 -247 298 -255 305 -4 3 -30 32 -60 65 -65 74 -265 278 -396 405
-264 255 -558 498 -919 756 -61 44 -174 119 -360 239 -185 120 -759 426 -945
504 -30 13 -129 54 -219 92 -206 88 -735 273 -838 294 -10 2 -53 13 -95 25
-43 11 -86 23 -98 25 -11 3 -28 7 -37 10 -52 13 -312 74 -338 78 -27 5 -101
19 -165 32 -118 24 -462 77 -580 90 -30 3 -62 8 -70 10 -8 2 -49 7 -90 10 -41
4 -88 8 -103 11 -27 4 -48 6 -227 20 -47 3 -101 8 -120 11 -44 6 -1165 14
-1171 9z m17755 -16738 c-4 -7 -31 -44 -59 -83 -29 -38 -146 -200 -261 -360
-114 -159 -246 -339 -292 -398 -102 -133 -217 -281 -237 -305 -8 -9 -94 -118
-191 -242 -97 -124 -186 -237 -198 -251 -11 -14 -34 -43 -51 -65 -36 -46 -144
-181 -168 -209 -9 -11 -180 -216 -379 -456 -299 -359 -521 -621 -686 -808 -13
-14 -45 -51 -70 -81 -44 -51 -210 -239 -222 -250 -4 -4 -149 -165 -195 -216
-5 -6 -33 -36 -61 -65 -43 -46 -90 -98 -263 -294 -164 -185 -336 -373 -478
-522 -23 -24 -44 -40 -46 -36 -3 5 16 31 41 59 73 79 232 253 282 308 25 28
62 69 82 91 20 22 45 50 56 63 11 12 53 59 94 105 41 45 90 100 109 122 19 22
37 42 40 45 6 5 176 195 228 255 118 135 316 361 321 365 3 3 28 32 55 65 28
33 57 67 65 75 8 8 40 44 70 80 30 36 57 67 60 70 3 3 43 50 90 105 47 55 87
102 90 105 68 66 825 994 1138 1395 55 72 212 272 348 445 136 173 263 335
282 360 19 25 45 59 58 75 62 79 216 284 278 369 38 53 71 96 73 96 2 0 1 -6
-3 -12z m-6285 -7677 c7 -1 -148 -162 -345 -360 -198 -197 -445 -446 -550
-552 -215 -218 -414 -411 -414 -402 0 16 316 433 351 463 3 3 58 70 121 150
64 80 128 159 143 175 56 63 383 411 455 485 l45 46 90 -2 c50 -1 96 -3 104
-3z m-91 -546 c-305 -302 -613 -606 -684 -675 -186 -178 -235 -223 -405 -375
-57 -52 -66 -51 -19 1 25 27 59 64 75 83 62 71 432 486 455 511 8 8 56 63 105
120 50 58 103 119 117 135 37 41 63 72 112 128 22 27 50 59 61 71 144 159 205
224 350 371 93 95 176 174 183 176 6 2 55 4 108 4 l96 0 -554 -550z"/>
<path d="M23198 27993 c7 -3 16 -2 19 1 4 3 -2 6 -13 5 -11 0 -14 -3 -6 -6z"/>
<path d="M23258 27993 c6 -2 18 -2 25 0 6 3 1 5 -13 5 -14 0 -19 -2 -12 -5z"/>
<path d="M23308 27993 c7 -3 16 -2 19 1 4 3 -2 6 -13 5 -11 0 -14 -3 -6 -6z"/>
<path d="M23353 27993 c9 -2 23 -2 30 0 6 3 -1 5 -18 5 -16 0 -22 -2 -12 -5z"/>
<path d="M23466 27992 c-3 -4 4 -9 15 -9 23 -2 25 3 4 10 -8 4 -16 3 -19 -1z"/>
<path d="M23528 27983 c12 -2 32 -2 45 0 12 2 2 4 -23 4 -25 0 -35 -2 -22 -4z"/>
<path d="M23606 27978 c3 -5 10 -6 15 -3 13 9 11 12 -6 12 -8 0 -12 -4 -9 -9z"/>
<path d="M23658 27973 c12 -2 30 -2 40 0 9 3 -1 5 -23 4 -22 0 -30 -2 -17 -4z"/>
<path d="M23724 27972 c3 -5 27 -9 53 -11 26 -1 110 -10 186 -19 75 -10 137
-14 137 -10 0 5 -6 8 -14 8 -13 0 -225 23 -324 35 -24 3 -41 2 -38 -3z"/>
<path d="M26950 25766 c0 -2 8 -10 18 -17 15 -13 16 -12 3 4 -13 16 -21 21
-21 13z"/>
</g>
</svg>
