<svg xmlns="http://www.w3.org/2000/svg" viewBox="0 0 3000 3000">
  <path fill="#b2b2b2" d="M1501.1572 288.5985c-8.6751-7.678-17.6246-15.043-26.7595-22.1677-13.9459-10.877-28.3226-21.193-42.9102-31.193-27.988-19.1863-56.7545-37.2123-84.8703-56.2107-4.8517-3.2785-9.6841-6.5858-14.5673-9.8171-10.1485-6.7154-20.5118-13.099-30.8764-19.4759-4.6797-2.8792-9.3605-5.7574-14.0922-8.5503-7.9962-4.7198-16.1363-9.1946-24.3844-13.459-21.9225-11.3341-44.6191-21.184-67.928-29.293-32.0708-11.1571-65.3423-19.0161-99.1209-22.4842-30.1715-3.0977-60.6071-2.6887-90.8873-.95-25.697 1.4754-51.3287 3.9048-76.9532 6.3336-15.3516 1.455-30.704 2.9101-46.077 4.1168-12.454.9775-24.9209 1.792-37.3683 2.8501-18.9924 1.6146-37.9324 3.796-56.8441 6.1753-13.5467 1.7043-27.085 3.511-40.5351 5.8586-14.401 2.5134-28.688 5.6446-42.9102 9.0254-34.3518 8.1657-68.3909 17.806-101.4961 30.0846-28.1533 10.442-55.587 22.7766-82.3369 36.4183-8.793 4.4842-17.5144 9.1105-26.1261 13.9339-10.8205 6.0606-21.4656 12.431-31.9847 19.0008-11.3747 7.104-22.6054 14.4432-33.5682 22.1676-18.1342 12.7775-35.5221 26.6008-52.2522 41.1685-12.0312 10.4761-23.7223 21.3365-35.3099 32.3014-5.6125 5.3109-11.2052 10.6508-16.4674 16.309-7.4933 8.0572-14.2937 16.736-20.7425 25.6511-9.0696 12.5382-17.4547 25.5542-25.9678 38.4767-16.9617 25.747-34.5232 51.2771-47.6604 79.1701a284.126 284.126 0 0 0-2.0627 4.48 185.447 185.447 0 0 0 3.2628-2.5002c1.6656-1.3058 3.31-2.641 5.0383-3.8627.6505-.4598 1.3168-.9056 2.0454-1.2275.7285-.322 1.5273-.5167 2.3212-.452.8641.0704 1.694.453 2.333 1.0389.639.586 1.0882 1.3688 1.3058 2.208.1935.746.208 1.5249.224 2.2953.0857 4.1284.246 8.2764-.28 12.372-.5188 4.0404-1.6972 7.9625-2.855 11.868-3.8007 12.8199-7.4318 25.6943-11.6495 38.383-3.5704 10.7411-7.5574 21.3381-11.4005 31.9847-2.6127 7.238-5.1598 14.502-7.442 21.851-3.8508 12.4-6.9414 25.0231-9.817 37.685-3.969 17.4752-7.5342 35.0458-10.4505 52.7272-2.0118 12.1976-3.7146 24.4467-5.067 36.735-.945 8.588-1.719 17.1944-2.375 25.8094-.9071 11.9118-1.589 23.8426-1.9001 35.7849-.3548 13.6155-.2277 27.2425.3167 40.8517.821 20.5271 2.5905 41.0064 4.7502 61.436 2.4463 23.1415 5.3947 46.2348 9.1837 69.1947 2.4594 14.903 5.2729 29.749 8.5504 44.4936 3.9205 17.6376 8.5049 35.1284 13.7756 52.4106 2.2448 7.3606 4.6138 14.6826 6.967 22.0093 5.2522 16.3532 10.4258 32.7315 15.6756 49.0854 6.6884 20.8352 13.5014 41.6343 20.901 62.2277 4.7439 13.2028 9.7278 26.3179 14.7256 39.4267 7.7307 20.2775 15.498 40.5486 24.0677 60.486 9.7257 22.6268 20.4766 44.8038 31.8264 66.6612 10.9913 21.1673 22.5447 42.0368 33.8848 63.0194 6.9737 12.9035 13.8677 25.8515 21.0592 38.635 18.4454 32.7882 38.821 64.4466 59.3776 95.9541 16.678 25.5628 33.4861 51.044 50.8272 76.1617 28.1863 40.8265 57.7703 80.6769 88.1955 119.8635 23.6282 30.4325 47.7656 60.4674 72.203 90.2539 31.8105 38.7732 64.132 77.1286 97.0626 114.955 26.7548 30.7324 53.9109 61.1146 81.3869 91.2039 30.8217 33.7532 62.0455 67.1371 93.3801 100.4148 23.447 24.901 46.9565 49.7431 70.502 74.5511 26.7613 28.1964 53.5725 56.3525 79.645 85.1871 10.5405 11.6571 20.9602 23.4252 31.1217 35.4141 4.1159 4.8561 8.1902 9.7494 12.0921 14.7791a276.59 276.59 0 0 1 6.1243 8.2037 231.9395 231.9395 0 0 1-15.7532-12.1224c-12.1917-10.2428-23.2889-21.7064-34.5967-32.9173-15.4626-15.3301-31.3556-30.2214-46.8007-45.5691-11.3821-11.3104-22.5178-22.8655-33.701-34.3727-32.923-33.8768-66.2649-67.3448-99.1525-101.256-20.8435-21.4922-41.5037-43.1615-62.0694-64.9195-37.9698-40.171-75.6196-80.6464-112.7382-121.6053-32.112-35.4342-63.8362-71.242-94.054-108.3047-26.206-32.1423-51.2606-65.2057-76.0033-98.4876-27.4934-36.9819-54.6164-74.2529-80.437-112.4215-20.1476-29.7829-39.494-60.1-58.5857-90.5706-3.4827-5.5585-6.9597-11.1262-10.7672-16.4674-2.9599-4.1522-6.1162-8.1627-9.0254-12.3505-2.4057-3.4628-4.6405-7.044-7.1252-10.4505-2.7449-3.7631-5.785-7.2996-8.7088-10.9254a222.175 222.175 0 0 1-13.2048-18.1858 388.4008 388.4008 0 0 0 9.7214 19.2942c8.5164 15.7936 18.1143 30.9737 27.551 46.2353 8.3506 13.5048 16.5811 27.084 25.0179 40.5351 10.136 16.1603 20.5684 32.1337 31.193 47.9771 25.9396 38.6811 53.024 76.586 80.7535 114.0049 24.1234 32.5528 48.7374 64.7415 73.7865 96.5875a4563.8357 4563.8357 0 0 0 27.5512 34.6765c22.763 28.3686 45.8566 56.4727 69.353 84.237 42.0335 49.6686 85.348 98.2406 129.2056 146.3063 60.664 66.4849 122.3725 132.0075 183.9912 197.6086a102042.028 102042.028 0 0 1 131.1611 139.901 396.7961 396.7961 0 0 0-8.3287-10.6558c-.9997-1.2351-2.0172-2.4804-2.6918-3.919-.2379-.5073-.4317-1.0367-.5542-1.5834-.056-.2495-.097-.509-.047-.7598.025-.1254.072-.2473.1471-.351.075-.1037.1771-.1888.2963-.235.1265-.049.2669-.053.4009-.032.134.021.2631.065.3908.111 2.9081 1.0395 5.509 2.7765 8.0357 4.5523 5.4787 3.8505 10.7672 7.9645 15.9924 12.1526 17.3362 13.8953 33.9908 28.6169 50.5897 43.3852 44.6952 39.7659 89.0456 79.9198 133.0057 120.4969 36.3033 33.5095 72.3398 67.3069 108.3047 101.1794a35312.1811 35312.1811 0 0 1 90.0347 85.0949l4.0667-4.3875 3.2669 3.5186a29955.866 29955.866 0 0 1 77.0845-75.7091c36.9705-36.1801 74.0346-72.2645 111.0677-108.3806 49.3504-48.1284 98.6472-96.3148 147.3438-145.1046 99.5142-99.7045 196.5054-201.9125 291.5528-305.884 48.0353-52.5453 95.5793-105.5467 142.0447-159.4852 123.1467-142.9527 238.8912-292.7638 337.8672-453.401 44.7457-72.6219 86.0514-147.4497 121.4159-225.0737 27.2956-59.913 51.0437-121.4903 69.7935-184.6018 23.0767-77.6758 38.5661-157.7895 42.9499-238.702 1.9239-35.509 1.7068-71.188-2.0649-106.5486-3.4293-32.1511-9.7974-63.9882-18.9971-94.9853-16.1308-54.3506-40.9991-106.0702-73.0973-152.8023-34.8466-50.7335-78.2243-95.5921-127.7598-132.1217a497.9663 497.9663 0 0 1 50.1045 40.116c18.7575 17.1152 36.194 35.6581 52.4176 55.192 25.6297 30.8589 48.2711 64.2542 66.7267 99.871 16.7138 32.255 29.9648 66.2721 40.0068 101.185 7.6577 26.6231 13.4624 53.8084 16.6452 81.3276 1.9676 17.0123 2.9317 34.1292 3.3582 51.2496 1.2354 49.588-2.0399 99.2624-9.1986 148.3464-5.0865 34.8756-12.1286 69.4529-20.5875 103.6673-6.328 25.5955-13.4511 50.9992-21.6095 76.0713-9.8463 30.2596-21.1925 60.0127-33.1443 89.5042-12.4541 30.7311-25.5725 61.1963-39.5688 91.2564-8.5084 18.2736-17.341 36.3973-26.5738 54.3158-17.3406 33.6539-36.0815 66.5631-54.6079 99.579-.6501 1.1586-1.3002 2.3178-1.8981 3.5042-1.4124 2.8028-2.5267 5.7444-3.7963 8.6147-3.1111 7.0337-7.142 13.6137-10.9507 20.2954-5.792 10.161-11.0897 20.596-16.7912 30.8081-13.2795 23.7852-28.7086 46.2911-44.0951 68.7708-17.9389 26.2087-35.8581 52.442-54.7538 77.9695-19.6069 26.4882-40.2468 52.1919-60.5943 78.1155-15.3707 19.583-30.577 39.2949-45.9932 58.8421-29.4923 37.3954-59.7495 74.1841-90.5263 110.5297-26.6678 31.4931-53.7262 62.6543-81.0357 93.5926a7611.0005 7611.0005 0 0 1-144.8538 159.4936 2438.5252 2438.5252 0 0 0 52.8674-54.5123c5.6318-5.9909 11.2332-12.0102 16.8393-18.0251 5.0148-5.3804 10.0336-10.7575 14.9705-16.2095 7.4213-8.1955 14.6556-16.558 21.9911-24.8303 10.0306-11.3115 20.2499-22.4539 30.4572-33.6062 8.6365-9.436 17.2651-18.8799 25.7596-28.444 10.2938-11.5899 20.3889-23.3543 30.5605-35.0516 9.6619-11.1111 19.3935-22.1626 28.9085-33.3997 10.3221-12.1903 20.3865-24.5959 30.5605-36.91 7.7195-9.3433 15.5022-18.6342 23.2817-27.9277 7.4551-8.9059 14.9078-17.8149 22.1946-26.859 9.5959-11.91 18.901-24.0507 28.3324-36.0914 19.0607-24.334 38.6427-48.2669 57.1064-73.057 8.0199-10.7678 15.8256-21.693 23.6454-32.6069 33.98-47.4247 68.2507-94.6681 100.3304-143.3984 14.7177-22.3567 28.9688-45.0184 42.9214-67.8604 16.0284-26.2403 31.6665-52.7251 46.4756-79.6723 21.5065-39.134 41.2528-79.2233 59.6402-119.9161 16.0958-35.6213 31.1579-71.7223 44.5526-108.4447 23.111-63.3604 41.2404-128.5581 53.6776-194.8451 10.4726-55.816 16.9139-112.5155 16.4831-169.3039-.4773-62.9211-9.4934-126.0318-29.8802-185.5606-21.2437-62.031-54.6877-119.6374-96.2334-170.363-55.7738-68.0976-126.267-123.9522-204.8948-163.5207-41.9452-21.1084-86.4274-37.7043-132.6773-45.8229-7.4871-1.3142-15.0143-2.406-22.4694-3.891-6.9484-1.3843-13.8238-3.1083-20.7136-4.7598a1017.9615 1017.9615 0 0 0-35.8525-7.9127c5.9325.0858 11.8622.362 17.777.828 12.5359.9878 24.9937 2.8276 37.3573 5.122 25.6913 4.7675 50.9985 11.4997 75.8434 19.5931 58.0615 18.914 113.761 45.3625 164.3657 79.5392 49.0638 33.1361 93.2664 73.5194 130.3217 119.6948 38.9708 48.5625 69.9786 103.4824 91.5968 161.875 16.4061 44.314 27.4311 90.6584 32.1262 137.6782 4.2808 42.8713 3.3038 86.1357-.2522 129.0731-7.5371 91.0079-26.6685 180.9804-55.7362 267.5501-25.1918 75.0264-57.7781 147.4151-94.0733 217.7447-67.0347 129.8939-146.7798 252.9768-233.7583 370.4537-67.0484 90.5586-138.4181 177.8509-211.7318 263.4164-37.412 43.6641-75.3418 86.8928-114.3227 129.1621-88.9624 96.4674-183.3009 187.8333-273.3597 283.278-14.4167 15.2789-28.723 30.6615-43.1211 45.9579-6.3782 6.7761-12.7784 13.5398-18.7766 20.6545-6.0756 7.2065-11.7265 14.7589-17.6146 22.1194-5.0142 6.2682-10.2002 12.3969-15.2638 18.6252-4.1149 5.0614-8.1494 10.1891-12.0379 15.4264a349.82 349.82 0 0 0-12.6455 18.2102 833.7843 833.7843 0 0 0 21.4146-20.2173c13.041-12.7549 25.6592-25.9333 38.4193-38.9692 23.8813-24.3974 48.2632-48.2987 72.435-72.4083 99.6101-99.3538 195.637-202.2299 290.9756-305.6895 19.2886-20.9317 38.551-41.8893 57.5026-63.1266 42.8304-47.9963 84.0557-97.4016 124.7305-147.2378 42.6451-52.2502 84.7009-104.9929 125.3288-158.8265 50.2743-66.6155 98.3676-134.913 142.9324-205.4759 49.5049-78.3848 94.6632-159.5969 133.1829-243.9245 27.6425-60.5151 51.866-122.6481 70.9928-186.3689 19.1855-63.9163 33.2217-129.3865 41.7099-195.578 7.9196-61.758 10.9943-124.5146 2.8501-186.2434-4.4215-33.513-12.1313-66.5584-22.2976-98.7969-9.2961-29.479-20.6562-58.323-34.3278-86.0452-36.2611-73.5273-88.7426-138.7062-151.1689-191.8484-58.4469-49.7546-125.7042-89.1519-197.7443-115.6429-60.4553-22.231-124.2465-35.387-188.5697-38.7894-29.5704-1.5641-59.2211-1.0798-88.7932.4516-22.3727 1.1586-44.7267 2.9175-66.9282 5.9126-23.7981 3.2105-47.4013 7.84-70.678 13.7434-28.7638 7.295-57.0523 16.544-84.3671 28.1402-25.361 10.7668-49.8614 23.5493-73.2586 38.0985-61.0294 37.9503-114.4723 88.0469-156.2841 146.4985a294.8624 294.8624 0 0 1 21.0372-32.0297c12.0528-15.9806 25.7049-30.6953 39.904-44.8033 29.4038-29.2151 61.3563-56.019 96.4051-78.1478 51.032-32.22 108.1165-54.1728 166.7419-68.5065 73.098-17.8721 148.9886-24.0901 224.0614-18.913 49.344 3.4029 98.3853 11.7129 145.9043 25.4371 66.1732 19.1119 129.2976 48.7548 186.2338 87.516 49.3876 33.6223 94.1224 74.0919 132.3646 119.9954 45.3479 54.4327 81.5511 116.583 105.5238 183.2513 17.0318 47.3657 27.8855 96.9185 32.6708 147.0253 2.4835 26.0047 3.3404 52.1554 2.8822 78.2744-.9872 56.276-8.0776 112.3466-19.1037 167.5406-8.4347 42.2219-19.1716 83.9735-31.7741 125.144-6.0822 19.8697-12.5991 39.6061-19.5231 59.1983-9.826 27.804-20.4719 55.3176-31.8863 82.5081-15.5981 37.1565-32.6312 73.7089-50.982 109.5858-18.4904 36.1499-38.314 71.6064-58.8541 106.6323-24.7647 42.23-50.5791 83.8484-77.6197 124.6586-14.9427 22.5518-30.2587 44.8552-45.8379 66.9721-34.9612 49.6326-71.249 98.3278-108.6646 146.1374-41.3303 52.8118-84.0325 104.5384-127.3944 155.6952-42.3484 49.9611-85.332 99.3861-129.1145 148.0954-92.4866 102.8941-188.5114 202.5649-286.2811 300.4529-10.4592 10.4718-20.9405 20.9255-31.0881 31.6995-11.8671 12.5996-23.2692 25.6281-34.6219 38.6931-7.4238 8.5435-14.828 17.1042-22.3017 25.604-9.5174 10.8241-19.1471 21.5489-28.7544 32.2933a10465.0752 10465.0752 0 0 0-32.1245 36.0942 923.1437 923.1437 0 0 0 21.8325-19.2002c18.7587-17.0283 36.807-34.8201 54.8302-52.6251 31.485-31.1038 62.9126-62.2662 94.1341-93.6345 99.2924-99.7592 196.4959-201.597 291.5584-305.395 23.6516-25.825 47.1713-51.7719 70.4142-77.9654 92.6516-104.4131 180.9208-212.7702 263.0256-325.6649 83.1545-114.3381 160.1314-233.606 222.2896-360.5873 36.7108-74.9954 68.2114-152.6355 92.092-232.6462 15.0295-50.3553 27.0321-101.6213 35.6897-153.4536 11.3652-68.0425 16.9573-137.3135 11.9659-206.1178-4.6897-64.645-18.7859-128.7092-43.0074-188.8282-33.5073-83.1665-86.24-158.1453-150.9235-220.2376-39.737-38.1452-84.0156-71.579-131.7226-99.113-62.2194-35.9099-130.201-61.7068-200.4422-76.771-72.394-15.5261-147.2179-19.6664-220.8829-12.2224 66.9916-7.1809 134.9951-4.856 201.3399 6.8835 21.2525 3.7606 42.335 8.4814 63.1634 14.1373 34.6583 9.4115 68.6134 21.4157 101.4726 35.9086 12.1133 5.3427 24.0786 11.0234 35.8468 17.0885 34.2157 17.6341 66.7289 38.5052 97.4214 61.7355 35.2197 26.6568 68.0931 56.4613 97.5972 89.3325 38.3057 42.6773 70.8809 90.5121 96.3534 141.8914 16.0768 32.4277 29.3274 66.2477 39.7277 100.9154 9.0653 30.2176 15.9715 61.1007 20.1983 92.3644 2.4052 17.79 3.9422 35.6888 5.0304 53.6075.573 9.4355 1.0219 18.88 1.1946 28.3313.2988 16.3564-.2299 32.7184-1.0828 49.0553-1.1503 22.0338-2.8904 44.037-5.2426 65.9751-4.1026 38.263-10.0696 76.3335-18.1478 113.9584-5.4847 25.5458-11.9407 50.8794-19.1559 75.9913-13.0229 45.3255-28.5167 89.9216-45.6818 133.846-12.2932 31.4575-25.4467 62.5802-39.5243 93.2807-17.8694 38.9696-37.2323 77.2658-58.4494 114.5187-9.0053 15.8115-18.3456 31.4371-26.9203 47.4862-2.1644 4.051-4.2797 8.1284-6.3301 12.2383-2.7307 5.4733-5.3461 11.0036-8.1 16.4652-5.4623 10.833-11.4637 21.3844-17.5099 31.9027-10.8412 18.86-21.8381 37.6349-33.381 56.0737-5.3302 8.5145-10.7762 16.9563-16.3141 25.3372-13.0847 19.8019-26.6815 39.2617-40.5459 58.5257-30.5876 42.5-62.4778 84.0467-94.7058 125.3166-21.184 27.1275-42.5172 54.1395-64.1481 80.912-22.8645 28.2993-46.0611 56.33-69.564 84.1014-10.3061 12.1778-20.6711 24.3057-31.1078 36.3717-11.2384 12.9927-22.5601 25.9138-34.0378 38.6956-11.7044 13.0343-23.573 25.9262-34.9164 39.2759-3.8495 4.5303-7.6376 9.1123-11.4465 13.6768-90.0316 107.8897-191.421 205.6401-291.5535 304.227a19861.329 19861.329 0 0 0-444.6348 451.9733 4296.082 4296.082 0 0 0-168.0925-176.1896c-40.7191-40.3275-82.2746-79.8662-126.0373-116.8686a1465.8406 1465.8406 0 0 0-155.1265-114.5469 16794.4356 16794.4356 0 0 0-47.7706-48.7664c-34.7521-35.3326-69.6639-70.5146-103.7434-106.4964-50.5825-53.406-99.3014-108.5423-149.169-162.6163-60.6789-65.7972-123.1848-130.169-177.79-201.0878-20.0606-26.054-39.0138-52.9401-58.6841-79.2901-18.7075-25.0603-38.06-49.631-57.2615-74.3148-28.9185-37.1751-57.5066-74.6232-84.7121-113.0696-21.8672-30.9023-42.8294-62.433-63.8303-93.9304-19.022-28.5292-38.084-57.0442-56.0033-86.2786a1305.9187 1305.9187 0 0 1-36.228-62.9714 1064.6663 1064.6663 0 0 0 37.5978 74.9549c27.137 49.1671 58.1202 96.1073 90.0403 142.3127 36.0477 52.1802 73.3533 103.5219 113.03 152.9989 32.6858 40.7594 66.9592 80.2271 99.5453 121.0662 17.077 21.402 33.6847 43.1734 50.3237 64.9177 22.7553 29.7373 45.5722 59.4277 68.5399 89.0013 49.9516 64.3187 100.6503 128.1248 154.8112 188.9414 30.9367 34.7385 63.012 68.5075 97.1391 100.1172 29.5569 27.3766 60.737 53.1882 94.8383 74.6403 8.5153 5.3567 17.2391 10.4609 25.0157 16.8429 6.6033 5.4191 12.4426 11.6937 18.4096 17.8065 10.4354 10.6903 21.3152 20.9353 32.0329 31.3425 15.4817 15.0333 30.6278 30.4077 45.9428 45.6108 28.6587 28.4493 57.9073 56.2968 87.1201 84.1769 82.3742 78.6161 164.5212 157.5446 250.3571 232.3657a3519.065 3519.065 0 0 0 8.9302 7.7579l1.2271 1.8538-1.0773 1.1007.8601 1.782a1425.7919 1425.7919 0 0 0-56.4184 53.3563 8778.864 8778.864 0 0 0-45.686-42.2987c-34.5532-31.7643-69.3609-63.251-103.8895-95.0421-57.6935-53.1194-114.6021-107.0834-171.6232-160.924-30.6961-28.9839-61.4256-57.9328-91.9714-87.0751-25.4809-24.3101-50.8338-48.7546-76.0045-73.3857a7955.1917 7955.1917 0 0 1-23.6398-23.2333c-24.6694-24.3423-49.1985-48.8265-73.6683-73.3695-33.1923-33.2915-66.2765-66.6919-99.034-100.4112-29.4768-30.3422-58.6888-60.9423-87.558-91.8631-25.03-26.8086-49.8018-53.8579-74.345-81.1128-34.997-38.8637-69.53-78.147-103.4393-117.9632-53.9622-63.3622-106.3506-128.0822-156.3561-194.6113-60.02-79.8527-116.6099-162.322-168.4411-247.7175-45.73-75.3432-87.7837-153.0294-123.1086-233.7759-41.6536-95.2116-73.8787-194.6024-95.0068-296.3562C8.7225 963.0939-1.0613 880.7258.3308 798.3104c.3264-19.3204 1.266-38.6345 3.0365-57.8765 5.8236-63.2934 20.651-125.629 42.1642-185.4383 22.7774-63.3242 53.092-123.9747 90.6021-179.8474 33.2724-49.5603 72.1671-95.3133 115.417-136.456 77.8007-74.01 169.775-132.989 269.278-173.3572C613.744 27.6395 713.1417 6.1453 813.2979 1.3562 861.247-.9366 909.3555.5674 957.1294 5.263c57.1338 5.6154 113.9005 15.8178 168.9224 32.2006 97.5774 29.0538 189.2352 77.6293 268.4688 141.563 46.7669 37.7362 89.2477 80.7802 126.3647 128.04a483.9338 483.9338 0 0 0-19.7281-18.468z"/>
  <path fill="#e5e5e5" d="m1270.4441 2443.8309 1065.3812-1.9818-.4772-302.3793-736.3536.2409.087-1801.4786-327.9374 1.8089z"/>
  <path d="M1451.1426 501.504c-9.7335.0236-19.4658.186-29.1914.4823-50.6997 1.5444-101.3746 6.7208-150.9532 17.4356-51.8717 11.2103-102.5015 28.5093-149.8691 52.4394-39.423 19.9165-76.6334 44.4798-109.1914 74.3262-19.1655 17.5693-36.6976 36.9506-51.9297 58.0215-42.9617 59.43-66.8401 131.8958-70.9101 205.1152-1.8684 33.6116.329 67.5111 7.498 100.4024 9.899 45.4157 29.311 88.6948 56.3105 126.5312 17.4352 24.433 37.9755 46.5892 60.5059 66.4219 41.6552 36.6675 89.7793 65.1963 138.6621 91.4668a2012.2496 2012.2496 0 0 0 117.8887 58.4707l.1094-309.2988c-12.6221-11.3742-23.9566-24.1787-33.7149-38.0879-14.9031-21.2427-26.2029-45.3871-30.1054-71.041-4.582-30.1204 1.2651-61.3019 13.7226-89.1055 8.4723-18.9092 20.0505-36.5535 34.9649-50.9375 9.9209-9.5682 21.1987-17.6015 32.5078-25.4805 7.5692-5.2734 15.1921-10.508 23.3222-14.8672 13.0097-6.9756 27.1379-11.6167 41.3555-15.5879 53.775-15.02 110.4574-20.8943 165.8066-13.5586 53.1096 7.039 104.8056 26.4298 148.1817 57.873 21.8558 15.8433 41.5069 34.6221 59.084 55.1095a409.729 409.729 0 0 1 20.3281 25.707L1982.084 760.998c-11.0288-25.1156-24.925-48.971-41.3301-70.955-23.5204-31.5191-52.1788-59.1359-84.2051-81.961-32.7562-23.3452-68.9359-41.656-106.4629-56.1367-31.2632-12.0636-63.5069-21.5105-96.1875-28.92-66.4254-15.06-134.6214-21.6874-202.7558-21.5214z"/>
  <path d="m1599.8984 1213.7422.1231 289.5488a269.8476 269.8476 0 0 1 10.5644 6.3789c14.8395 9.4286 28.7266 20.2872 42.1192 31.6778 9.3332 7.938 18.449 16.1533 26.8808 25.0429 16.8467 17.7615 30.9666 38.338 39.7871 61.1739 5.6894 14.7295 9.1431 30.3369 10.004 46.1035.7475 13.6907-.45 27.4254-2.461 40.9882-1.9254 12.9857-4.6041 25.8894-8.6953 38.3633-4.031 12.2904-9.4244 24.1245-15.8984 35.3223-14.494 25.0698-34.4127 46.8835-57.5547 64.291-27.4668 20.6607-59.3334 35.0992-92.4649 44.2422-35.6736 9.8445-72.7943 13.6541-109.7949 14.3438-37.6946.7027-75.5053-1.8073-112.582-8.6407-36.2493-6.6809-71.8584-17.5422-104.8477-33.9843-24.2035-12.0634-46.9608-27.1275-67.0527-45.2286-33.4129-30.1022-59.1528-68.5044-75.1367-110.541a297.383 297.383 0 0 1-5.5489-15.9394l-240.3847 93.9101a422.5663 422.5663 0 0 0 12.5664 41.1074c14.6736 40.5018 35.5987 78.7521 61.9805 112.8067 18.0654 23.3195 38.6604 44.6572 61.1132 63.789 36.47 31.0757 77.804 56.2884 121.6309 75.6524 42.6173 18.8296 87.5321 32.1495 133.1016 41.8555 41.5245 8.8444 83.6731 14.7205 126.0195 17.7695 47.9265 3.4507 96.1192 3.2802 144.0078-.6621 43.0769-3.5462 85.8993-10.1427 128.0703-19.6192 41.7577-9.3837 82.9369-21.6098 122.5176-37.8925 46.8025-19.2536 91.4001-44.2486 130.9355-75.8418 28.3812-22.6797 54.1148-48.7434 75.8223-77.875 19.4286-26.0733 35.5962-54.5569 48.2637-84.5039 12.3617-29.2241 21.392-59.8271 27.3476-90.9942 4.4352-23.2106 7.1716-46.7419 8.2559-70.3476 1.5315-33.3406-.2442-66.8984-6.4434-99.6934-5.1587-27.2907-13.3844-54.0274-24.8457-79.3262-10.421-23.0024-23.5094-44.7964-38.957-64.7734-30.2731-39.1493-69.202-70.861-110.4336-98.2305-36.1771-24.0143-74.3288-44.9282-113.0918-64.4961a1923.1129 1923.1129 0 0 0-144.918-65.7773z"/>
</svg>
